<?xml version="1.0" encoding="UTF-8" standalone="no"?>
<svg
   xmlns:dc="http://purl.org/dc/elements/1.1/"
   xmlns:cc="http://creativecommons.org/ns#"
   xmlns:rdf="http://www.w3.org/1999/02/22-rdf-syntax-ns#"
   xmlns:svg="http://www.w3.org/2000/svg"
   xmlns="http://www.w3.org/2000/svg"
   viewBox="0 0 266.64001 532.38666"
   height="532.38666"
   width="266.64001"
   xml:space="preserve"
   id="svg2"
   version="1.1"><metadata
     id="metadata8"><rdf:RDF><cc:Work
         rdf:about=""><dc:format>image/svg+xml</dc:format><dc:type
           rdf:resource="http://purl.org/dc/dcmitype/StillImage" /></cc:Work></rdf:RDF></metadata><defs
     id="defs6" /><g
     transform="matrix(1.3333333,0,0,-1.3333333,0,532.38667)"
     id="g10"><g
       transform="scale(0.1)"
       id="g12"><path
         id="path14"
         style="fill:#cccfd5;fill-opacity:1;fill-rule:nonzero;stroke:none"
         d="m 1085.31,3417.74 c -33.51,0 -39.76,4.92 -51.62,17.1 -11.99,12.27 -8.22,29.09 -8.22,62.23 0,33.16 -26.818,59.91 -59.904,59.91 -33.086,0 -59.902,-26.81 -59.902,-59.91 0,-33.08 25.918,-59.89 59.902,-59.89 16.895,0 39.044,-6.13 48.814,-19.43 9.88,-13.47 11.03,-26.52 11.03,-59.9 0,-33.38 26.82,-59.9 59.9,-59.9 33.09,0 59.9,26.83 59.9,59.9 0,33.07 -26.38,59.89 -59.9,59.89" /><path
         id="path16"
         style="fill:#cccfd5;fill-opacity:1;fill-rule:nonzero;stroke:none"
         d="m 210.469,3423.67 c -33.496,0 -39.766,4.92 -51.621,17.09 -11.993,12.26 -8.223,29.07 -8.223,62.22 0,33.16 -26.816,59.91 -59.9023,59.91 -33.086,0 -59.9024,-26.81 -59.9024,-59.91 0,-33.07 25.9375,-59.9 59.9024,-59.9 16.8943,0 39.0433,-6.12 48.8083,-19.41 9.883,-13.49 11.035,-26.53 11.035,-59.9 0,-33.39 26.817,-59.92 59.903,-59.92 33.086,0 59.902,26.83 59.902,59.92 0,33.08 -26.387,59.9 -59.902,59.9" /><path
         id="path18"
         style="fill:#cccfd5;fill-opacity:1;fill-rule:nonzero;stroke:none"
         d="m 358.965,3423.67 c -33.535,0 -39.785,4.92 -51.641,17.09 -11.992,12.26 -8.222,29.07 -8.222,62.22 0,33.16 -26.817,59.91 -59.903,59.91 -33.086,0 -59.902,-26.81 -59.902,-59.91 0,-33.07 25.918,-59.9 59.902,-59.9 16.895,0 39.043,-6.12 48.809,-19.41 9.883,-13.49 11.035,-26.53 11.035,-59.9 0,-33.39 26.816,-59.92 59.922,-59.92 33.066,0 59.883,26.83 59.883,59.92 0,33.08 -26.387,59.9 -59.883,59.9" /><path
         id="path20"
         style="fill:#cccfd5;fill-opacity:1;fill-rule:nonzero;stroke:none"
         d="m 504.375,3423.67 c -33.496,0 -39.746,4.92 -51.621,17.09 -11.973,12.26 -8.203,29.07 -8.203,62.22 0,33.16 -26.817,59.91 -59.903,59.91 -33.085,0 -59.902,-26.81 -59.902,-59.91 0,-33.07 25.918,-59.9 59.902,-59.9 16.895,0 39.043,-6.12 48.79,-19.41 9.902,-13.49 11.054,-26.53 11.054,-59.9 0,-33.39 26.817,-59.92 59.883,-59.92 33.105,0 59.922,26.83 59.922,59.92 0,33.08 -26.387,59.9 -59.922,59.9" /><path
         id="path22"
         style="fill:#cccfd5;fill-opacity:1;fill-rule:nonzero;stroke:none"
         d="m 504.375,3842.16 c -33.496,0 -39.746,4.93 -51.621,17.1 -11.973,12.28 -8.203,29.1 -8.203,62.24 0,33.15 -26.817,59.9 -59.903,59.9 -33.085,0 -59.902,-26.81 -59.902,-59.9 0,-33.09 25.918,-59.89 59.902,-59.89 16.895,0 39.043,-6.14 48.79,-19.44 9.902,-13.46 11.054,-26.52 11.054,-59.9 0,-33.38 26.817,-59.9 59.883,-59.9 33.105,0 59.922,26.83 59.922,59.9 0,33.08 -26.387,59.89 -59.922,59.89" /><path
         id="path24"
         style="fill:#cccfd5;fill-opacity:1;fill-rule:nonzero;stroke:none"
         d="m 648.164,3842.16 c -33.516,0 -39.785,4.93 -51.641,17.1 -11.972,12.28 -8.203,29.1 -8.203,62.24 0,33.15 -26.836,59.9 -59.902,59.9 -33.086,0 -59.922,-26.81 -59.922,-59.9 0,-33.09 25.938,-59.89 59.922,-59.89 16.895,0 39.043,-6.14 48.789,-19.44 9.883,-13.46 11.035,-26.52 11.035,-59.9 0,-33.38 26.836,-59.9 59.922,-59.9 33.066,0 59.902,26.83 59.902,59.9 0,33.08 -26.406,59.89 -59.902,59.89" /><path
         id="path26"
         style="fill:#cccfd5;fill-opacity:1;fill-rule:nonzero;stroke:none"
         d="m 820.645,3561.04 c 33.515,0 39.765,4.93 51.621,17.08 11.992,12.29 8.203,29.09 8.203,62.24 0,33.15 26.836,59.91 59.922,59.91 33.066,0 59.899,-26.81 59.899,-59.91 0,-33.09 -25.935,-59.9 -59.899,-59.9 -16.895,0 -39.043,-6.1 -48.809,-19.42 -9.883,-13.46 -11.035,-26.51 -11.035,-59.89 0,-33.39 -26.817,-59.9 -59.902,-59.9 -33.086,0 -59.903,26.81 -59.903,59.9 0,33.07 26.387,59.89 59.903,59.89" /><path
         id="path28"
         style="fill:#cccfd5;fill-opacity:1;fill-rule:nonzero;stroke:none"
         d="m 672.148,3561.04 c 33.536,0 39.786,4.93 51.661,17.08 11.953,12.29 8.203,29.09 8.203,62.24 0,33.15 26.816,59.91 59.902,59.91 33.086,0 59.902,-26.81 59.902,-59.91 0,-33.09 -25.937,-59.9 -59.902,-59.9 -16.914,0 -39.062,-6.1 -48.809,-19.42 -9.882,-13.46 -11.035,-26.51 -11.035,-59.89 0,-33.39 -26.816,-59.9 -59.922,-59.9 -33.066,0 -59.882,26.81 -59.882,59.9 0,33.07 26.386,59.89 59.882,59.89" /><path
         id="path30"
         style="fill:#cccfd5;fill-opacity:1;fill-rule:nonzero;stroke:none"
         d="m 526.719,3561.04 c 33.515,0 39.765,4.93 51.64,17.08 11.973,12.29 8.204,29.09 8.204,62.24 0,33.15 26.816,59.91 59.902,59.91 33.086,0 59.902,-26.81 59.902,-59.91 0,-33.09 -25.918,-59.9 -59.902,-59.9 -16.895,0 -39.063,-6.1 -48.809,-19.42 -9.883,-13.46 -11.035,-26.51 -11.035,-59.89 0,-33.39 -26.816,-59.9 -59.902,-59.9 -33.086,0 -59.903,26.81 -59.903,59.9 0,33.07 26.387,59.89 59.903,59.89" /><path
         id="path32"
         style="fill:#cccfd5;fill-opacity:1;fill-rule:nonzero;stroke:none"
         d="m 242.383,3704.82 c 33.515,0 39.765,4.91 51.621,17.08 11.992,12.28 8.223,29.07 8.223,62.24 0,33.14 26.836,59.91 59.902,59.91 33.086,0 59.902,-26.83 59.902,-59.91 0,-33.11 -25.918,-59.91 -59.902,-59.91 -16.895,0 -39.043,-6.12 -48.789,-19.41 -9.902,-13.49 -11.055,-26.52 -11.055,-59.9 0,-33.4 -26.816,-59.9 -59.902,-59.9 -33.086,0 -59.903,26.8 -59.903,59.9 0,33.07 26.387,59.9 59.903,59.9" /><path
         id="path34"
         style="fill:#cccfd5;fill-opacity:1;fill-rule:nonzero;stroke:none"
         d="m 672.148,3283.09 c 33.536,0 39.786,4.93 51.661,17.09 11.953,12.28 8.203,29.09 8.203,62.25 0,33.14 26.816,59.89 59.902,59.89 33.086,0 59.902,-26.83 59.902,-59.89 0,-33.09 -25.937,-59.91 -59.902,-59.91 -16.914,0 -39.062,-6.12 -48.809,-19.4 -9.882,-13.48 -11.035,-26.53 -11.035,-59.93 0,-33.4 -26.816,-59.9 -59.922,-59.9 -33.066,0 -59.882,26.81 -59.882,59.9 0,33.1 26.386,59.9 59.882,59.9" /><path
         id="path36"
         style="fill:#cccfd5;fill-opacity:1;fill-rule:nonzero;stroke:none"
         d="m 526.719,3283.09 c 33.515,0 39.765,4.93 51.64,17.09 11.973,12.28 8.204,29.09 8.204,62.25 0,33.14 26.816,59.89 59.902,59.89 33.086,0 59.902,-26.83 59.902,-59.89 0,-33.09 -25.918,-59.91 -59.902,-59.91 -16.895,0 -39.063,-6.12 -48.809,-19.4 -9.883,-13.48 -11.035,-26.53 -11.035,-59.93 0,-33.4 -26.816,-59.9 -59.902,-59.9 -33.086,0 -59.903,26.81 -59.903,59.9 0,33.1 26.387,59.9 59.903,59.9" /><path
         id="path38"
         style="fill:#eaebee;fill-opacity:1;fill-rule:nonzero;stroke:none"
         d="m 1077.65,3429.22 c -33.51,0 -39.76,4.92 -51.62,17.1 -11.99,12.28 -8.22,29.09 -8.22,62.24 0,33.15 -26.814,59.9 -59.9,59.9 -33.086,0 -59.902,-26.8 -59.902,-59.9 0,-33.09 25.918,-59.89 59.902,-59.89 16.895,0 39.043,-6.13 48.8,-19.44 9.89,-13.46 11.04,-26.52 11.04,-59.9 0,-33.38 26.82,-59.9 59.9,-59.9 33.09,0 59.91,26.84 59.91,59.9 0,33.08 -26.39,59.89 -59.91,59.89" /><path
         id="path40"
         style="fill:#5f6969;fill-opacity:1;fill-rule:nonzero;stroke:none"
         d="m 202.805,3435.15 c -33.496,0 -39.766,4.92 -51.621,17.09 -11.985,12.27 -8.223,29.07 -8.223,62.23 0,33.15 -26.816,59.9 -59.9024,59.9 -33.0859,0 -59.9023,-26.81 -59.9023,-59.9 0,-33.08 25.9375,-59.9 59.9023,-59.9 16.9023,0 39.0504,-6.13 48.8084,-19.42 9.883,-13.49 11.035,-26.52 11.035,-59.9 0,-33.39 26.817,-59.91 59.903,-59.91 33.086,0 59.902,26.82 59.902,59.91 0,33.09 -26.387,59.9 -59.902,59.9" /><path
         id="path42"
         style="fill:#6c7577;fill-opacity:1;fill-rule:nonzero;stroke:none"
         d="m 351.301,3435.15 c -33.535,0 -39.785,4.92 -51.641,17.09 -11.992,12.27 -8.222,29.07 -8.222,62.23 0,33.15 -26.817,59.9 -59.903,59.9 -33.086,0 -59.902,-26.81 -59.902,-59.9 0,-33.08 25.918,-59.9 59.902,-59.9 16.895,0 39.043,-6.13 48.809,-19.42 9.883,-13.49 11.035,-26.52 11.035,-59.9 0,-33.39 26.816,-59.91 59.922,-59.91 33.066,0 59.89,26.82 59.89,59.91 0,33.09 -26.394,59.9 -59.89,59.9" /><path
         id="path44"
         style="fill:#858d91;fill-opacity:1;fill-rule:nonzero;stroke:none"
         d="m 496.719,3435.15 c -33.504,0 -39.754,4.92 -51.621,17.09 -11.981,12.27 -8.211,29.07 -8.211,62.23 0,33.15 -26.817,59.9 -59.903,59.9 -33.086,0 -59.902,-26.81 -59.902,-59.9 0,-33.08 25.918,-59.9 59.902,-59.9 16.895,0 39.043,-6.13 48.797,-19.42 9.895,-13.49 11.047,-26.52 11.047,-59.9 0,-33.39 26.817,-59.91 59.891,-59.91 33.097,0 59.914,26.82 59.914,59.91 0,33.09 -26.387,59.9 -59.914,59.9" /><path
         id="path46"
         style="fill:#858d91;fill-opacity:1;fill-rule:nonzero;stroke:none"
         d="m 496.719,3853.65 c -33.504,0 -39.754,4.92 -51.621,17.1 -11.981,12.27 -8.211,29.09 -8.211,62.23 0,33.16 -26.817,59.91 -59.903,59.91 -33.086,0 -59.902,-26.81 -59.902,-59.91 0,-33.08 25.918,-59.89 59.902,-59.89 16.895,0 39.043,-6.13 48.797,-19.43 9.895,-13.47 11.047,-26.53 11.047,-59.91 0,-33.37 26.817,-59.9 59.891,-59.9 33.097,0 59.914,26.84 59.914,59.9 0,33.08 -26.387,59.9 -59.914,59.9" /><path
         id="path48"
         style="fill:#a2a7af;fill-opacity:1;fill-rule:nonzero;stroke:none"
         d="m 640.5,3853.65 c -33.516,0 -39.777,4.92 -51.633,17.1 -11.98,12.27 -8.211,29.09 -8.211,62.23 0,33.16 -26.836,59.91 -59.902,59.91 -33.086,0 -59.914,-26.81 -59.914,-59.91 0,-33.08 25.93,-59.89 59.914,-59.89 16.894,0 39.043,-6.13 48.789,-19.43 9.891,-13.47 11.043,-26.53 11.043,-59.91 0,-33.37 26.828,-59.9 59.914,-59.9 33.074,0 59.902,26.84 59.902,59.9 0,33.08 -26.398,59.9 -59.902,59.9" /><path
         id="path50"
         style="fill:#dcdee3;fill-opacity:1;fill-rule:nonzero;stroke:none"
         d="m 812.98,3572.52 c 33.516,0 39.774,4.94 51.622,17.09 11.992,12.28 8.211,29.09 8.211,62.23 0,33.16 26.828,59.91 59.914,59.91 33.074,0 59.91,-26.8 59.91,-59.91 0,-33.09 -25.938,-59.89 -59.91,-59.89 -16.895,0 -39.043,-6.11 -48.809,-19.43 -9.875,-13.45 -11.035,-26.51 -11.035,-59.89 0,-33.39 -26.817,-59.9 -59.903,-59.9 -33.085,0 -59.902,26.82 -59.902,59.9 0,33.08 26.387,59.89 59.902,59.89" /><path
         id="path52"
         style="fill:#bfc3ca;fill-opacity:1;fill-rule:nonzero;stroke:none"
         d="m 664.492,3572.52 c 33.528,0 39.778,4.94 51.653,17.09 11.96,12.28 8.203,29.09 8.203,62.23 0,33.16 26.816,59.91 59.902,59.91 33.086,0 59.902,-26.8 59.902,-59.91 0,-33.09 -25.929,-59.89 -59.902,-59.89 -16.906,0 -39.062,-6.11 -48.801,-19.43 -9.883,-13.45 -11.043,-26.51 -11.043,-59.89 0,-33.39 -26.816,-59.9 -59.914,-59.9 -33.074,0 -59.89,26.82 -59.89,59.9 0,33.08 26.394,59.89 59.89,59.89" /><path
         id="path54"
         style="fill:#a2a7af;fill-opacity:1;fill-rule:nonzero;stroke:none"
         d="m 519.055,3572.52 c 33.515,0 39.765,4.94 51.64,17.09 11.973,12.28 8.203,29.09 8.203,62.23 0,33.16 26.817,59.91 59.903,59.91 33.086,0 59.902,-26.8 59.902,-59.91 0,-33.09 -25.918,-59.89 -59.902,-59.89 -16.895,0 -39.055,-6.11 -48.801,-19.43 -9.891,-13.45 -11.043,-26.51 -11.043,-59.89 0,-33.39 -26.816,-59.9 -59.902,-59.9 -33.086,0 -59.903,26.82 -59.903,59.9 0,33.08 26.387,59.89 59.903,59.89" /><path
         id="path56"
         style="fill:#6c7577;fill-opacity:1;fill-rule:nonzero;stroke:none"
         d="m 234.727,3716.3 c 33.507,0 39.757,4.91 51.621,17.08 11.984,12.29 8.215,29.08 8.215,62.24 0,33.15 26.835,59.91 59.91,59.91 33.078,0 59.894,-26.82 59.894,-59.91 0,-33.1 -25.918,-59.9 -59.894,-59.9 -16.903,0 -39.051,-6.13 -48.797,-19.42 -9.895,-13.48 -11.055,-26.52 -11.055,-59.9 0,-33.4 -26.816,-59.9 -59.894,-59.9 -33.094,0 -59.903,26.8 -59.903,59.9 0,33.08 26.387,59.9 59.903,59.9" /><path
         id="path58"
         style="fill:#dcdee3;fill-opacity:1;fill-rule:nonzero;stroke:none"
         d="m 664.492,3294.57 c 33.528,0 39.778,4.94 51.653,17.09 11.96,12.28 8.203,29.1 8.203,62.25 0,33.14 26.816,59.89 59.902,59.89 33.086,0 59.902,-26.82 59.902,-59.89 0,-33.09 -25.929,-59.9 -59.902,-59.9 -16.906,0 -39.062,-6.12 -48.801,-19.4 -9.883,-13.48 -11.043,-26.54 -11.043,-59.94 0,-33.4 -26.816,-59.9 -59.914,-59.9 -33.074,0 -59.89,26.82 -59.89,59.9 0,33.1 26.394,59.9 59.89,59.9" /><path
         id="path60"
         style="fill:#bfc3ca;fill-opacity:1;fill-rule:nonzero;stroke:none"
         d="m 519.055,3294.57 c 33.515,0 39.765,4.94 51.64,17.09 11.973,12.28 8.203,29.1 8.203,62.25 0,33.14 26.817,59.89 59.903,59.89 33.086,0 59.902,-26.82 59.902,-59.89 0,-33.09 -25.918,-59.9 -59.902,-59.9 -16.895,0 -39.055,-6.12 -48.801,-19.4 -9.891,-13.48 -11.043,-26.54 -11.043,-59.94 0,-33.4 -26.816,-59.9 -59.902,-59.9 -33.086,0 -59.903,26.82 -59.903,59.9 0,33.1 26.387,59.9 59.903,59.9" /><path
         id="path62"
         style="fill:#231f20;fill-opacity:1;fill-rule:nonzero;stroke:none"
         d="M 866.719,3616.07 H 979.57 l 121.56,-153.35 h -12.29 v 153.35 h 77.6 V 3405 h -113.67 l -121.567,153.34 h 12.793 V 3405 h -77.277 v 211.07" /><path
         id="path64"
         style="fill:#231f20;fill-opacity:1;fill-rule:nonzero;stroke:none"
         d="m 1185.21,3478.55 c 0,56.4 38.95,59.66 114.43,59.66 42.61,0 66.14,-1.23 81.15,-16.64 v 18.24 c 0,20.3 -6.09,27.61 -36.52,27.61 h -45.86 c -22.71,0 -29.22,-2.03 -30.02,-16.63 h -75.48 c 0,56 27.6,65.33 93.35,65.33 h 90.47 c 53.56,0 81.95,-25.58 81.95,-74.26 v -135.94 h -73.84 v 23.54 c -21.49,-22.33 -29.63,-26.78 -68.58,-26.78 h -53.15 c -47.48,-0.41 -77.9,10.13 -77.9,58.82 z m 138.77,-27.19 c 53.57,0 58.44,8.12 58.44,21.93 0,15.4 -4.46,21.08 -47.48,21.08 h -34.49 c -32.87,0 -39.79,-7.32 -39.79,-24.35 0,-13.38 10.57,-18.66 41,-18.66 h 22.32" /><path
         id="path66"
         style="fill:#231f20;fill-opacity:1;fill-rule:nonzero;stroke:none"
         d="m 1482.22,3612.86 h 77.91 v -33.27 h 0.82 c 13.8,28.79 40.98,36.53 82.78,36.53 48.27,0 115.66,-2.04 115.66,-91.32 v -118.88 h -77.91 v 118.88 c 0,20.3 -16.25,30.44 -50.34,30.44 h -17.85 c -33.26,0 -53.16,-15.43 -53.16,-45.04 v -104.28 h -77.91 v 206.94" /><path
         id="path68"
         style="fill:#231f20;fill-opacity:1;fill-rule:nonzero;stroke:none"
         d="m 1791.61,3556.87 h -22.74 v 55.99 h 22.74 v 32.51 h 77.91 v -32.51 h 120.94 v -55.99 h -120.94 v -79.54 c 0,-15.4 11.36,-18.66 30.02,-18.66 25.19,0 32.08,5.68 32.08,24.73 v 13.81 h 68.17 v -25.16 c 0,-39.33 -25.97,-69.37 -88.07,-69.37 h -30.84 c -47.86,0 -89.27,15.01 -89.27,72.22 v 81.97" /><path
         id="path70"
         style="fill:#99cd29;fill-opacity:1;fill-rule:nonzero;stroke:none"
         d="m 862.402,3620.39 h 112.852 l 121.566,-153.35 h -12.3 v 153.35 h 77.62 v -211.07 h -113.69 l -121.563,153.34 h 12.812 v -153.34 h -77.297 v 211.07" /><path
         id="path72"
         style="fill:#f19c1b;fill-opacity:1;fill-rule:nonzero;stroke:none"
         d="m 1180.89,3482.87 c 0,56.4 38.95,59.65 114.43,59.65 42.61,0 66.14,-1.23 81.16,-16.64 v 18.25 c 0,20.3 -6.08,27.61 -36.51,27.61 h -45.87 c -22.71,0 -29.22,-2.03 -30.02,-16.64 h -75.47 c 0,56.01 27.58,65.33 93.34,65.33 h 90.47 c 53.56,0 81.97,-25.57 81.97,-74.25 v -135.94 h -73.87 v 23.53 c -21.48,-22.33 -29.6,-26.77 -68.57,-26.77 h -53.15 c -47.48,-0.41 -77.91,10.13 -77.91,58.82 z m 138.77,-27.19 c 53.57,0 58.45,8.11 58.45,21.92 0,15.4 -4.47,21.09 -47.48,21.09 h -34.5 c -32.87,0 -39.76,-7.31 -39.76,-24.35 0,-13.38 10.56,-18.66 40.97,-18.66 h 22.32" /><path
         id="path74"
         style="fill:#f19c1b;fill-opacity:1;fill-rule:nonzero;stroke:none"
         d="m 1477.92,3617.18 h 77.91 v -33.26 h 0.82 c 13.79,28.78 40.97,36.51 82.76,36.51 48.3,0 115.66,-2.04 115.66,-91.31 v -118.88 h -77.91 v 118.88 c 0,20.3 -16.25,30.43 -50.31,30.43 h -17.87 c -33.27,0 -53.15,-15.42 -53.15,-45.03 v -104.28 h -77.91 v 206.94" /><path
         id="path76"
         style="fill:#f19c1b;fill-opacity:1;fill-rule:nonzero;stroke:none"
         d="m 1787.32,3561.19 h -22.77 v 55.99 h 22.77 v 32.5 h 77.91 v -32.5 h 120.92 v -55.99 h -120.92 v -79.53 c 0,-15.41 11.35,-18.68 30.02,-18.68 25.15,0 32.05,5.69 32.05,24.74 v 13.81 h 68.17 v -25.16 c 0,-39.33 -25.97,-69.37 -88.05,-69.37 h -30.84 c -47.88,0 -89.26,15.01 -89.26,72.21 v 81.98" /><path
         id="path78"
         style="fill:#cccfd5;fill-opacity:1;fill-rule:nonzero;stroke:none"
         d="m 1062.16,254.453 c -33.52,0 -39.77,4.922 -51.62,17.098 -11.993,12.277 -8.22,29.094 -8.22,62.238 0,33.152 -26.82,59.902 -59.906,59.902 -33.086,0 -59.902,-26.808 -59.902,-59.902 0,-33.086 25.918,-59.894 59.902,-59.894 16.895,0 39.043,-6.133 48.809,-19.434 9.887,-13.465 11.037,-26.523 11.037,-59.902 0,-33.379 26.81,-59.903 59.9,-59.903 33.09,0 59.9,26.836 59.9,59.903 0,33.078 -26.38,59.894 -59.9,59.894" /><path
         id="path80"
         style="fill:#cccfd5;fill-opacity:1;fill-rule:nonzero;stroke:none"
         d="m 187.316,260.379 c -33.496,0 -39.765,4.922 -51.621,17.09 -11.992,12.265 -8.222,29.074 -8.222,62.226 0,33.157 -26.817,59.903 -59.9027,59.903 -33.0859,0 -59.90233,-26.805 -59.90233,-59.903 0,-33.074 25.93753,-59.898 59.90233,-59.898 16.8945,0 39.0427,-6.125 48.8087,-19.418 9.883,-13.484 11.035,-26.524 11.035,-59.902 0,-33.387 26.816,-59.911 59.902,-59.911 33.086,0 59.903,26.825 59.903,59.911 0,33.086 -26.387,59.902 -59.903,59.902" /><path
         id="path82"
         style="fill:#cccfd5;fill-opacity:1;fill-rule:nonzero;stroke:none"
         d="m 335.813,260.379 c -33.536,0 -39.786,4.922 -51.641,17.09 -11.992,12.265 -8.223,29.074 -8.223,62.226 0,33.157 -26.816,59.903 -59.902,59.903 -33.086,0 -59.902,-26.805 -59.902,-59.903 0,-33.074 25.918,-59.898 59.902,-59.898 16.894,0 39.043,-6.125 48.808,-19.418 9.883,-13.484 11.036,-26.524 11.036,-59.902 0,-33.387 26.816,-59.911 59.922,-59.911 33.066,0 59.882,26.825 59.882,59.911 0,33.086 -26.386,59.902 -59.882,59.902" /><path
         id="path84"
         style="fill:#cccfd5;fill-opacity:1;fill-rule:nonzero;stroke:none"
         d="m 481.223,260.379 c -33.496,0 -39.746,4.922 -51.621,17.09 -11.973,12.265 -8.204,29.074 -8.204,62.226 0,33.157 -26.816,59.903 -59.902,59.903 -33.086,0 -59.902,-26.805 -59.902,-59.903 0,-33.074 25.918,-59.898 59.902,-59.898 16.895,0 39.043,-6.125 48.789,-19.418 9.903,-13.484 11.055,-26.524 11.055,-59.902 0,-33.387 26.816,-59.911 59.883,-59.911 33.105,0 59.922,26.825 59.922,59.911 0,33.086 -26.387,59.902 -59.922,59.902" /><path
         id="path86"
         style="fill:#cccfd5;fill-opacity:1;fill-rule:nonzero;stroke:none"
         d="m 481.223,678.875 c -33.496,0 -39.746,4.922 -51.621,17.102 -11.973,12.273 -8.204,29.089 -8.204,62.234 0,33.156 -26.816,59.902 -59.902,59.902 -33.086,0 -59.902,-26.804 -59.902,-59.902 0,-33.086 25.918,-59.891 59.902,-59.891 16.895,0 39.043,-6.132 48.789,-19.433 9.903,-13.465 11.055,-26.524 11.055,-59.903 0,-33.379 26.816,-59.902 59.883,-59.902 33.105,0 59.922,26.836 59.922,59.902 0,33.075 -26.387,59.891 -59.922,59.891" /><path
         id="path88"
         style="fill:#cccfd5;fill-opacity:1;fill-rule:nonzero;stroke:none"
         d="m 625.012,678.875 c -33.516,0 -39.785,4.922 -51.641,17.102 -11.973,12.273 -8.203,29.089 -8.203,62.234 0,33.156 -26.836,59.902 -59.902,59.902 -33.086,0 -59.922,-26.804 -59.922,-59.902 0,-33.086 25.937,-59.891 59.922,-59.891 16.894,0 39.043,-6.132 48.789,-19.433 9.883,-13.465 11.035,-26.524 11.035,-59.903 0,-33.379 26.836,-59.902 59.922,-59.902 33.066,0 59.902,26.836 59.902,59.902 0,33.075 -26.406,59.891 -59.902,59.891" /><path
         id="path90"
         style="fill:#cccfd5;fill-opacity:1;fill-rule:nonzero;stroke:none"
         d="m 797.492,397.754 c 33.516,0 39.766,4.93 51.621,17.078 11.992,12.285 8.203,29.094 8.203,62.238 0,33.153 26.836,59.91 59.922,59.91 33.067,0 59.903,-26.804 59.903,-59.91 0,-33.086 -25.938,-59.894 -59.903,-59.894 -16.894,0 -39.043,-6.102 -48.808,-19.422 -9.883,-13.457 -11.035,-26.516 -11.035,-59.895 0,-33.386 -26.817,-59.898 -59.903,-59.898 -33.086,0 -59.902,26.812 -59.902,59.898 0,33.079 26.387,59.895 59.902,59.895" /><path
         id="path92"
         style="fill:#cccfd5;fill-opacity:1;fill-rule:nonzero;stroke:none"
         d="m 648.996,397.754 c 33.535,0 39.785,4.93 51.66,17.078 11.953,12.285 8.203,29.094 8.203,62.238 0,33.153 26.817,59.91 59.903,59.91 33.086,0 59.902,-26.804 59.902,-59.91 0,-33.086 -25.937,-59.894 -59.902,-59.894 -16.914,0 -39.063,-6.102 -48.809,-19.422 -9.883,-13.457 -11.035,-26.516 -11.035,-59.895 0,-33.386 -26.816,-59.898 -59.922,-59.898 -33.066,0 -59.883,26.812 -59.883,59.898 0,33.079 26.387,59.895 59.883,59.895" /><path
         id="path94"
         style="fill:#cccfd5;fill-opacity:1;fill-rule:nonzero;stroke:none"
         d="m 503.566,397.754 c 33.516,0 39.766,4.93 51.641,17.078 11.973,12.285 8.203,29.094 8.203,62.238 0,33.153 26.817,59.91 59.903,59.91 33.085,0 59.902,-26.804 59.902,-59.91 0,-33.086 -25.918,-59.894 -59.902,-59.894 -16.895,0 -39.063,-6.102 -48.809,-19.422 -9.883,-13.457 -11.035,-26.516 -11.035,-59.895 0,-33.386 -26.817,-59.898 -59.903,-59.898 -33.086,0 -59.902,26.812 -59.902,59.898 0,33.079 26.387,59.895 59.902,59.895" /><path
         id="path96"
         style="fill:#cccfd5;fill-opacity:1;fill-rule:nonzero;stroke:none"
         d="m 219.23,541.531 c 33.516,0 39.766,4.914 51.622,17.082 11.992,12.285 8.222,29.071 8.222,62.235 0,33.144 26.836,59.914 59.903,59.914 33.086,0 59.902,-26.828 59.902,-59.914 0,-33.106 -25.918,-59.903 -59.902,-59.903 -16.895,0 -39.043,-6.121 -48.789,-19.414 -9.903,-13.484 -11.055,-26.523 -11.055,-59.902 0,-33.399 -26.817,-59.902 -59.903,-59.902 -33.085,0 -59.902,26.808 -59.902,59.902 0,33.078 26.387,59.902 59.902,59.902" /><path
         id="path98"
         style="fill:#cccfd5;fill-opacity:1;fill-rule:nonzero;stroke:none"
         d="m 648.996,119.805 c 33.535,0 39.785,4.929 51.66,17.09 11.953,12.277 8.203,29.089 8.203,62.246 0,33.144 26.817,59.89 59.903,59.89 33.086,0 59.902,-26.824 59.902,-59.89 0,-33.086 -25.937,-59.903 -59.902,-59.903 -16.914,0 -39.063,-6.125 -48.809,-19.402 C 710.07,106.355 708.918,93.3008 708.918,59.9023 708.918,26.5039 682.102,0 648.996,0 615.93,0 589.113,26.8164 589.113,59.9023 c 0,33.0938 26.387,59.9027 59.883,59.9027" /><path
         id="path100"
         style="fill:#cccfd5;fill-opacity:1;fill-rule:nonzero;stroke:none"
         d="m 503.566,119.805 c 33.516,0 39.766,4.929 51.641,17.09 11.973,12.277 8.203,29.089 8.203,62.246 0,33.144 26.817,59.89 59.903,59.89 33.085,0 59.902,-26.824 59.902,-59.89 0,-33.086 -25.918,-59.903 -59.902,-59.903 -16.895,0 -39.063,-6.125 -48.809,-19.402 C 564.621,106.355 563.469,93.3008 563.469,59.9023 563.469,26.5039 536.652,0 503.566,0 470.48,0 443.664,26.8164 443.664,59.9023 c 0,33.0938 26.387,59.9027 59.902,59.9027" /><path
         id="path102"
         style="fill:#eaebee;fill-opacity:1;fill-rule:nonzero;stroke:none"
         d="m 1054.49,265.938 c -33.5,0 -39.75,4.921 -51.62,17.097 -11.979,12.278 -8.21,29.094 -8.21,62.238 0,33.153 -26.816,59.903 -59.902,59.903 -33.086,0 -59.903,-26.809 -59.903,-59.903 0,-33.085 25.918,-59.894 59.903,-59.894 16.894,0 39.043,-6.133 48.797,-19.434 9.894,-13.465 11.047,-26.523 11.047,-59.898 0,-33.379 26.818,-59.906 59.888,-59.906 33.1,0 59.92,26.836 59.92,59.906 0,33.074 -26.39,59.891 -59.92,59.891" /><path
         id="path104"
         style="fill:#5f6969;fill-opacity:1;fill-rule:nonzero;stroke:none"
         d="m 179.648,271.863 c -33.496,0 -39.765,4.922 -51.621,17.09 -11.98,12.266 -8.222,29.074 -8.222,62.227 0,33.156 -26.8167,59.902 -59.9027,59.902 C 26.8164,411.082 0,384.277 0,351.18 c 0,-33.075 25.9375,-59.903 59.9023,-59.903 16.9063,0 39.0547,-6.121 48.8087,-19.414 9.883,-13.484 11.035,-26.523 11.035,-59.902 0,-33.387 26.817,-59.91 59.902,-59.91 33.086,0 59.903,26.828 59.903,59.91 0,33.086 -26.387,59.902 -59.903,59.902" /><path
         id="path106"
         style="fill:#6c7577;fill-opacity:1;fill-rule:nonzero;stroke:none"
         d="m 328.145,271.863 c -33.536,0 -39.786,4.922 -51.641,17.09 -11.992,12.266 -8.223,29.074 -8.223,62.227 0,33.156 -26.816,59.902 -59.902,59.902 -33.086,0 -59.902,-26.805 -59.902,-59.902 0,-33.075 25.918,-59.903 59.902,-59.903 16.894,0 39.043,-6.121 48.809,-19.414 9.882,-13.484 11.035,-26.523 11.035,-59.902 0,-33.387 26.816,-59.91 59.922,-59.91 33.066,0 59.894,26.828 59.894,59.91 0,33.086 -26.398,59.902 -59.894,59.902" /><path
         id="path108"
         style="fill:#858d91;fill-opacity:1;fill-rule:nonzero;stroke:none"
         d="m 473.566,271.863 c -33.507,0 -39.757,4.922 -51.621,17.09 -11.984,12.266 -8.215,29.074 -8.215,62.227 0,33.156 -26.816,59.902 -59.902,59.902 -33.086,0 -59.902,-26.805 -59.902,-59.902 0,-33.075 25.918,-59.903 59.902,-59.903 16.895,0 39.043,-6.121 48.801,-19.414 9.891,-13.484 11.043,-26.523 11.043,-59.902 0,-33.387 26.816,-59.91 59.894,-59.91 33.094,0 59.911,26.828 59.911,59.91 0,33.086 -26.387,59.902 -59.911,59.902" /><path
         id="path110"
         style="fill:#858d91;fill-opacity:1;fill-rule:nonzero;stroke:none"
         d="m 473.566,690.359 c -33.507,0 -39.757,4.922 -51.621,17.102 -11.984,12.273 -8.215,29.09 -8.215,62.234 0,33.157 -26.816,59.903 -59.902,59.903 -33.086,0 -59.902,-26.805 -59.902,-59.903 0,-33.086 25.918,-59.89 59.902,-59.89 16.895,0 39.043,-6.133 48.801,-19.434 9.891,-13.469 11.043,-26.523 11.043,-59.902 0,-33.379 26.816,-59.903 59.894,-59.903 33.094,0 59.911,26.836 59.911,59.903 0,33.078 -26.387,59.89 -59.911,59.89" /><path
         id="path112"
         style="fill:#a2a7af;fill-opacity:1;fill-rule:nonzero;stroke:none"
         d="m 617.344,690.359 c -33.516,0 -39.774,4.922 -51.629,17.102 -11.985,12.273 -8.215,29.09 -8.215,62.234 0,33.157 -26.836,59.903 -59.902,59.903 -33.086,0 -59.91,-26.805 -59.91,-59.903 0,-33.086 25.925,-59.89 59.91,-59.89 16.894,0 39.043,-6.133 48.789,-19.434 9.894,-13.469 11.047,-26.523 11.047,-59.902 0,-33.379 26.824,-59.903 59.91,-59.903 33.078,0 59.902,26.836 59.902,59.903 0,33.078 -26.394,59.89 -59.902,59.89" /><path
         id="path114"
         style="fill:#dcdee3;fill-opacity:1;fill-rule:nonzero;stroke:none"
         d="m 789.824,409.238 c 33.516,0 39.778,4.934 51.621,17.078 11.993,12.286 8.215,29.094 8.215,62.239 0,33.152 26.824,59.91 59.91,59.91 33.078,0 59.914,-26.805 59.914,-59.91 0,-33.086 -25.937,-59.895 -59.914,-59.895 -16.894,0 -39.043,-6.101 -48.808,-19.422 -9.871,-13.457 -11.035,-26.515 -11.035,-59.894 0,-33.387 -26.817,-59.903 -59.903,-59.903 -33.086,0 -59.902,26.817 -59.902,59.903 0,33.078 26.387,59.894 59.902,59.894" /><path
         id="path116"
         style="fill:#bfc3ca;fill-opacity:1;fill-rule:nonzero;stroke:none"
         d="m 641.34,409.238 c 33.523,0 39.773,4.934 51.648,17.078 11.965,12.286 8.203,29.094 8.203,62.239 0,33.152 26.817,59.91 59.903,59.91 33.086,0 59.902,-26.805 59.902,-59.91 0,-33.086 -25.926,-59.895 -59.902,-59.895 -16.903,0 -39.063,-6.101 -48.797,-19.422 -9.883,-13.457 -11.047,-26.515 -11.047,-59.894 0,-33.387 -26.816,-59.903 -59.91,-59.903 -33.078,0 -59.895,26.817 -59.895,59.903 0,33.078 26.399,59.894 59.895,59.894" /><path
         id="path118"
         style="fill:#a2a7af;fill-opacity:1;fill-rule:nonzero;stroke:none"
         d="m 495.898,409.238 c 33.516,0 39.766,4.934 51.641,17.078 11.973,12.286 8.203,29.094 8.203,62.239 0,33.152 26.817,59.91 59.903,59.91 33.085,0 59.902,-26.805 59.902,-59.91 0,-33.086 -25.918,-59.895 -59.902,-59.895 -16.895,0 -39.051,-6.101 -48.797,-19.422 -9.895,-13.457 -11.047,-26.515 -11.047,-59.894 0,-33.387 -26.817,-59.903 -59.903,-59.903 -33.085,0 -59.902,26.817 -59.902,59.903 0,33.078 26.387,59.894 59.902,59.894" /><path
         id="path120"
         style="fill:#6c7577;fill-opacity:1;fill-rule:nonzero;stroke:none"
         d="m 211.574,553.016 c 33.504,0 39.754,4.914 51.621,17.082 11.981,12.285 8.211,29.074 8.211,62.234 0,33.145 26.836,59.914 59.914,59.914 33.075,0 59.891,-26.824 59.891,-59.914 0,-33.105 -25.918,-59.902 -59.891,-59.902 -16.906,0 -39.054,-6.121 -48.8,-19.414 -9.891,-13.485 -11.055,-26.524 -11.055,-59.903 0,-33.398 -26.817,-59.902 -59.891,-59.902 -33.097,0 -59.902,26.809 -59.902,59.902 0,33.078 26.387,59.903 59.902,59.903" /><path
         id="path122"
         style="fill:#dcdee3;fill-opacity:1;fill-rule:nonzero;stroke:none"
         d="m 641.34,131.289 c 33.523,0 39.773,4.93 51.648,17.09 11.965,12.273 8.203,29.09 8.203,62.246 0,33.145 26.817,59.891 59.903,59.891 33.086,0 59.902,-26.825 59.902,-59.891 0,-33.086 -25.926,-59.902 -59.902,-59.902 -16.903,0 -39.063,-6.125 -48.797,-19.407 -9.883,-13.476 -11.047,-26.531 -11.047,-59.9293 0,-33.3984 -26.816,-59.9023 -59.91,-59.9023 -33.078,0 -59.895,26.8164 -59.895,59.9023 0,33.0933 26.399,59.9023 59.895,59.9023" /><path
         id="path124"
         style="fill:#bfc3ca;fill-opacity:1;fill-rule:nonzero;stroke:none"
         d="m 495.898,131.289 c 33.516,0 39.766,4.93 51.641,17.09 11.973,12.273 8.203,29.09 8.203,62.246 0,33.145 26.817,59.891 59.903,59.891 33.085,0 59.902,-26.825 59.902,-59.891 0,-33.086 -25.918,-59.902 -59.902,-59.902 -16.895,0 -39.051,-6.125 -48.797,-19.407 -9.895,-13.476 -11.047,-26.531 -11.047,-59.9293 0,-33.3984 -26.817,-59.9023 -59.903,-59.9023 -33.085,0 -59.902,26.8164 -59.902,59.9023 0,33.0933 26.387,59.9023 59.902,59.9023" /><path
         id="path126"
         style="fill:#231f20;fill-opacity:1;fill-rule:nonzero;stroke:none"
         d="M 839.25,457.098 H 952.102 L 1073.66,303.75 h -12.29 v 153.348 h 77.61 V 246.035 h -113.69 l -121.56,153.34 h 12.813 V 246.035 H 839.25 v 211.063" /><path
         id="path128"
         style="fill:#231f20;fill-opacity:1;fill-rule:nonzero;stroke:none"
         d="m 1157.73,319.578 c 0,56.406 38.96,59.66 114.44,59.66 42.61,0 66.14,-1.23 81.15,-16.64 v 18.242 c 0,20.301 -6.07,27.617 -36.5,27.617 h -45.87 c -22.72,0 -29.23,-2.031 -30.02,-16.641 h -75.47 c 0,56.004 27.58,65.332 93.33,65.332 h 90.48 c 53.55,0 81.96,-25.578 81.96,-74.257 V 246.953 h -73.87 v 23.535 c -21.47,-22.336 -29.59,-26.777 -68.57,-26.777 h -53.15 c -47.48,-0.41 -77.91,10.125 -77.91,58.816 z m 138.77,-27.187 c 53.58,0 58.45,8.117 58.45,21.925 0,15.399 -4.46,21.082 -47.48,21.082 h -34.5 c -32.86,0 -39.76,-7.304 -39.76,-24.343 0,-13.379 10.57,-18.664 40.98,-18.664 h 22.31" /><path
         id="path130"
         style="fill:#231f20;fill-opacity:1;fill-rule:nonzero;stroke:none"
         d="m 1454.77,453.895 h 77.91 v -33.262 h 0.82 c 13.79,28.781 40.96,36.515 82.76,36.515 48.29,0 115.65,-2.043 115.65,-91.32 V 246.953 H 1654 v 118.875 c 0,20.305 -16.25,30.442 -50.31,30.442 h -17.87 c -33.26,0 -53.14,-15.43 -53.14,-45.04 V 246.953 h -77.91 v 206.942" /><path
         id="path132"
         style="fill:#231f20;fill-opacity:1;fill-rule:nonzero;stroke:none"
         d="m 1764.16,397.898 h -22.76 v 55.997 h 22.76 v 32.5 h 77.91 v -32.5 H 1963 v -55.997 h -120.93 v -79.531 c 0,-15.406 11.36,-18.672 30.02,-18.672 25.16,0 32.06,5.684 32.06,24.739 v 13.808 h 68.17 v -25.156 c 0,-39.336 -25.97,-69.375 -88.05,-69.375 h -30.84 c -47.88,0 -89.27,15.008 -89.27,72.215 v 81.972" /></g></g></svg>